<svg
  xmlns="http://www.w3.org/2000/svg"
  width="40"
  height="40"
  viewBox="0 0 64 64"
>
  <path
    d="M 32 10 C 19.85 10 10 19.85 10 32 C 10 44.15 19.85 54 32 54 C 44.15 54 54 44.15 54 32 C 54 19.85 44.15 10 32 10 z M 32 14 C 41.941 14 50 22.059 50 32 C 50 41.941 41.941 50 32 50 C 22.059 50 14 41.941 14 32 C 14 22.059 22.059 14 32 14 z"
    fill="white"
  ></path>

  <g transform="translate(19,45) scale(0.0082,-0.0082)" fill="white">
    <path d="M1450 3184 c-14 -2 -68 -11 -120 -20 -506 -85 -965 -434 -1180 -899 -114 -245 -157 -505 -139 -832 12 -214 43 -392 123 -704 69 -268 90 -382 101 -539 4 -59 13 -105 23 -123 79 -133 443 -60 634 127 l37 36 86 -56 c169 -110 294 -151 498 -163 221 -14 435 12 624 74 124 41 329 147 433 225 312 234 528 566 610 937 16 74 20 128 20 341 0 219 -3 265 -21 349 -134 620 -603 1090 -1221 1225 -71 15 -140 21 -288 23 -107 2 -206 2 -220 -1z m348 -799 c305 -71 552 -326 616 -637 76 -369 -138 -754 -499 -899 -222 -88 -452 -75 -660 39 l-70 39 -75 -62 c-87 -70 -134 -93 -159 -78 -48 30 -95 151 -127 328 -26 141 -26 465 -1 583 72 337 266 575 540 667 43 14 104 30 135 35 71 11 217 4 300 -15z"/>
  </g>
</svg>
